<svg width="24" height="24" viewBox="0 0 24 24" fill="none" xmlns="http://www.w3.org/2000/svg">
<path d="M11.9975 2C14.7648 2 17.0017 4.24 17.0017 7C17.0017 9.76 14.7648 12 11.9975 12C9.23517 12 6.99327 9.76 6.99327 7C6.99327 4.24 9.23517 2 11.9975 2ZM11.9975 4C10.3411 4 8.99496 5.345 8.99496 7C8.99496 8.655 10.3411 10 11.9975 10C13.6589 10 15 8.655 15 7C15 5.345 13.6589 4 11.9975 4ZM11.9975 13.5C17.1468 13.5 20.3345 16.995 20.4997 22C20.5097 22.275 20.2845 22.5 20.0043 22.5H19.0034C18.7282 22.5 18.508 22.275 18.498 22C18.3479 18.08 16.0459 15.5 11.9975 15.5C7.95408 15.5 5.65214 18.08 5.50201 22C5.492 22.275 5.27182 22.5 4.99158 22.5H3.99074C3.7155 22.5 3.49031 22.275 3.50032 22C3.66546 16.995 6.85315 13.5 11.9975 13.5Z" fill="black"/>
</svg>
