<svg width="24" height="24" viewBox="0 0 24 24" fill="none" xmlns="http://www.w3.org/2000/svg">
<path d="M22.5617 3C23.2586 3 23.7418 3.69497 23.4991 4.34825C23.3536 4.74005 22.9797 5 22.5617 5H21.7038C21.4812 5 21.2854 5.14715 21.2235 5.36096L18.063 16.2781C17.9392 16.7057 17.5476 17 17.1024 17H5.2799C4.87709 17 4.5136 16.7583 4.35777 16.3869L0.581857 7.38687C0.305384 6.72789 0.78936 6 1.50399 6H15.491C16.1539 6 16.6334 6.63335 16.4535 7.27141C16.3319 7.70236 15.9388 8 15.491 8H3.76001C3.40269 8 3.16071 8.36396 3.29895 8.69345L5.81638 14.6934C5.8943 14.8792 6.07604 15 6.27744 15H15.996C16.2191 15 16.4153 14.8521 16.4767 14.6375L19.5976 3.72502C19.7204 3.29585 20.1127 3 20.5591 3H22.5617ZM8.5 18C7.672 18 7 18.672 7 19.5C7 20.329 7.672 21 8.5 21C9.328 21 10 20.329 10 19.5C10 18.672 9.328 18 8.5 18ZM13.5 18C12.672 18 12 18.671 12 19.5C12 20.329 12.672 21 13.5 21C14.328 21 15 20.329 15 19.5C15 18.672 14.328 18 13.5 18Z" fill="black"/>
</svg>
