<svg width="18" height="18" viewBox="0 0 18 18" fill="none" xmlns="http://www.w3.org/2000/svg">
<path d="M6.375 5.25C6.16789 5.25 6 5.41789 6 5.625V6.375C6 6.58211 6.16789 6.75 6.375 6.75H11.625C11.8321 6.75 12 6.58211 12 6.375V5.625C12 5.41789 11.8321 5.25 11.625 5.25H6.375Z" fill="black"/>
<path d="M6.375 8.25C6.16789 8.25 6 8.41789 6 8.625V9.375C6 9.58211 6.16789 9.75 6.375 9.75H11.625C11.8321 9.75 12 9.58211 12 9.375V8.625C12 8.41789 11.8321 8.25 11.625 8.25H6.375Z" fill="black"/>
<path d="M6 11.625C6 11.4179 6.16789 11.25 6.375 11.25H9.375C9.58211 11.25 9.75 11.4179 9.75 11.625V12.375C9.75 12.5821 9.58211 12.75 9.375 12.75H6.375C6.16789 12.75 6 12.5821 6 12.375V11.625Z" fill="black"/>
<path fill-rule="evenodd" clip-rule="evenodd" d="M2.25 3.75C2.25 2.30025 3.42525 1.125 4.875 1.125H13.125C14.5747 1.125 15.75 2.30025 15.75 3.75V14.25C15.75 15.6997 14.5747 16.875 13.125 16.875H4.875C3.42525 16.875 2.25 15.6997 2.25 14.25V3.75ZM4.875 2.625H13.125C13.7463 2.625 14.25 3.12868 14.25 3.75V14.25C14.25 14.8713 13.7463 15.375 13.125 15.375H4.875C4.25368 15.375 3.75 14.8713 3.75 14.25V3.75C3.75 3.12868 4.25368 2.625 4.875 2.625Z" fill="black"/>
</svg>
