<svg width="24" height="24" viewBox="0 0 24 24" fill="none" xmlns="http://www.w3.org/2000/svg">
<path fill-rule="evenodd" clip-rule="evenodd" d="M12 20.9375C16.936 20.9375 20.9375 16.936 20.9375 12C20.9375 7.06396 16.936 3.0625 12 3.0625C7.06396 3.0625 3.0625 7.06396 3.0625 12C3.0625 16.936 7.06396 20.9375 12 20.9375ZM23 12C23 18.0751 18.0751 23 12 23C5.92487 23 1 18.0751 1 12C1 5.92487 5.92487 1 12 1C18.0751 1 23 5.92487 23 12Z" fill="black"/>
<path fill-rule="evenodd" clip-rule="evenodd" d="M14.0896 14.1212C14.4107 13.927 14.6351 13.6065 14.7078 13.2384L15.9351 7.0176C16.0024 6.67675 15.633 6.41811 15.3357 6.59788L9.90991 9.87887C9.58879 10.073 9.36436 10.3936 9.29172 10.7617L8.06435 16.9825C7.9971 17.3233 8.36647 17.582 8.66376 17.4022L14.0896 14.1212ZM10.7275 13.8171L12.8026 12.5622L13.272 10.183L11.1969 11.4379L10.7275 13.8171Z" fill="black"/>
</svg>
