<svg width="18" height="18" viewBox="0 0 18 18" fill="none" xmlns="http://www.w3.org/2000/svg">
<path d="M7.83482 2.24248C8.6116 2.66964 9 3.1875 9 3.1875C9 3.1875 9.3884 2.66964 10.1652 2.24248C10.7104 1.94265 11.447 1.6875 12.375 1.6875C15 1.6875 16.875 3.74999 16.875 6.375C16.875 9.375 14.4233 12.0493 12.1875 14.0625C10.8072 15.3054 9.75 16.125 9 16.125C8.25 16.125 7.16288 15.2992 5.8125 14.0625C3.61462 12.0497 1.125 9.375 1.125 6.375C1.125 3.74999 3 1.6875 5.625 1.6875C6.55297 1.6875 7.28957 1.94265 7.83482 2.24248ZM7.3242 3.68558C6.95765 3.44121 6.39854 3.1875 5.625 3.1875C3.90805 3.1875 2.625 4.49649 2.625 6.375C2.625 7.45534 3.07516 8.57625 3.87765 9.73486C4.67813 10.8906 5.75132 11.9725 6.82557 12.9563C7.48719 13.5622 8.03099 14.0172 8.47119 14.3146C8.76517 14.5133 8.93298 14.5855 8.99918 14.6113C9.06462 14.5854 9.22795 14.5136 9.51476 14.3189C9.95482 14.0201 10.5001 13.5634 11.1838 12.9478C12.2698 11.9699 13.3407 10.8899 14.1345 9.73775C14.9298 8.58338 15.375 7.46083 15.375 6.375C15.375 4.49649 14.0919 3.1875 12.375 3.1875C11.6015 3.1875 11.0424 3.44121 10.6758 3.68558C10.0351 4.11273 9.53497 4.76807 9 5.3125C8.4715 4.77465 7.95699 4.10743 7.3242 3.68558Z" fill="black"/>
</svg>
