<svg width="18" height="18" viewBox="0 0 18 18" fill="none" xmlns="http://www.w3.org/2000/svg">
<path d="M3.375 8.99997C3.37502 5.47917 6.2292 2.625 9.75 2.625C13.2708 2.625 16.125 5.47918 16.125 9C16.125 12.5208 13.2708 15.375 9.75 15.375C8.12447 15.375 6.64103 14.7666 5.51498 13.7651C5.36023 13.6275 5.1235 13.6265 4.97705 13.773L4.44672 14.3033C4.30028 14.4498 4.29969 14.6879 4.45291 14.8273C5.85165 16.0995 7.71026 16.875 9.75 16.875C14.0992 16.875 17.625 13.3492 17.625 9C17.625 4.65076 14.0992 1.125 9.75 1.125C5.40077 1.125 1.87502 4.65074 1.875 8.99996H0.24533C0.0433205 8.99996 -0.0698047 9.20607 0.0473607 9.35329L2.35835 12.2535C2.49167 12.4155 2.75833 12.4155 2.89165 12.2535L5.20264 9.35329C5.31981 9.20607 5.20668 8.99997 5.00467 8.99997H3.375Z" fill="black"/>
<path d="M8.625 5.25C8.625 5.04289 8.79289 4.875 9 4.875H9.75C9.95711 4.875 10.125 5.04289 10.125 5.25V8.56759L12.9887 10.2255C13.168 10.3293 13.2292 10.5587 13.1254 10.738L12.7496 11.387C12.6458 11.5663 12.4164 11.6274 12.2372 11.5237L8.81211 9.54074C8.69631 9.4737 8.625 9.35002 8.625 9.21621V5.25Z" fill="black"/>
</svg>
