<svg width="24" height="24" viewBox="0 0 24 24" fill="none" xmlns="http://www.w3.org/2000/svg">
<path fill-rule="evenodd" clip-rule="evenodd" d="M12.5941 1.99387C12.2485 1.71053 11.7509 1.71054 11.4053 1.99388L1.34302 10.2437C1.03674 10.4948 0.92131 10.9113 1.05465 11.2843C1.188 11.6572 1.54134 11.9062 1.93741 11.9062H3.39461L4.13965 20.0484C4.21325 20.8528 4.88786 21.4685 5.69562 21.4685H9.18757C9.53274 21.4685 9.81256 21.1886 9.81256 20.8435V16.0406C9.81256 14.1657 11.3423 14.1657 11.6875 14.1657H12.3125C12.6577 14.1657 14.1875 14.1657 14.1875 16.0406V20.8435C14.1875 21.1886 14.4673 21.4685 14.8125 21.4685H18.3045C19.1123 21.4685 19.7869 20.8528 19.8605 20.0484L20.6055 11.9062H22.0623C22.4584 11.9062 22.8118 11.6572 22.9451 11.2843C23.0784 10.9113 22.963 10.4948 22.6567 10.2437L12.5941 1.99387Z" fill="black"/>
</svg>
