<svg width="54" height="21" viewBox="0 0 54 21" fill="none" xmlns="http://www.w3.org/2000/svg">
<path d="M16.3208 16.2568C19.0088 16.2568 20.6055 14.1548 20.6055 10.5952C20.6055 9.25488 20.3491 8.12695 19.8584 7.25537C19.1479 5.90039 17.9248 5.16797 16.3794 5.16797C14.0796 5.16797 12.4536 6.71338 12.4536 8.88135C12.4536 10.9175 13.9185 12.397 15.9326 12.397C17.1704 12.397 18.1738 11.8184 18.6719 10.8149H18.6938C18.6938 10.8149 18.7231 10.8149 18.7305 10.8149C18.7451 10.8149 18.7964 10.8149 18.7964 10.8149C18.7964 13.2319 17.8809 14.6748 16.3354 14.6748C15.4272 14.6748 14.7241 14.1768 14.4824 13.3784H12.6001C12.915 15.1143 14.3872 16.2568 16.3208 16.2568ZM16.3867 10.8955C15.1709 10.8955 14.3066 10.0312 14.3066 8.82275C14.3066 7.64355 15.2148 6.74268 16.394 6.74268C17.5732 6.74268 18.4814 7.6582 18.4814 8.85205C18.4814 10.0312 17.5952 10.8955 16.3867 10.8955Z" fill="black"/>
<path d="M23.6966 16.1543C24.3924 16.1543 24.8685 15.6562 24.8685 14.9971C24.8685 14.3306 24.3924 13.8398 23.6966 13.8398C23.0081 13.8398 22.5247 14.3306 22.5247 14.9971C22.5247 15.6562 23.0081 16.1543 23.6966 16.1543ZM23.6966 10.6611C24.3924 10.6611 24.8685 10.1704 24.8685 9.51123C24.8685 8.84473 24.3924 8.354 23.6966 8.354C23.0081 8.354 22.5247 8.84473 22.5247 9.51123C22.5247 10.1704 23.0081 10.6611 23.6966 10.6611Z" fill="black"/>
<path d="M31.7242 16.0005H33.5333V14.0303H34.9615V12.4336H33.5333V5.43164H30.8673C28.9996 8.24414 27.5128 10.5952 26.5606 12.3457V14.0303H31.7242V16.0005ZM28.3111 12.3677C29.5416 10.1997 30.6402 8.46387 31.651 6.96973H31.7535V12.4775H28.3111V12.3677Z" fill="black"/>
<path d="M38.9901 16.0005H40.8798V5.43164H38.9975L36.2362 7.36523V9.18164L38.8656 7.33594H38.9901V16.0005Z" fill="black"/>
</svg>
