<svg width="24" height="24" viewBox="0 0 24 24" fill="none" xmlns="http://www.w3.org/2000/svg">
<path d="M12.0001 0.25C12.5063 0.25 12.9167 0.660406 12.9167 1.16667V2.75118C16.5342 3.20226 19.3334 6.28812 19.3334 10.0278V13.9018C19.3334 14.0115 19.3922 14.1127 19.4874 14.1671L20.4707 14.729C21.0642 15.0682 21.4598 15.6705 21.5353 16.3499L21.6214 17.1249C21.7622 18.3919 20.7704 19.5 19.4956 19.5H14.7501C14.7501 21.0188 13.5188 22.25 12.0001 22.25C10.4813 22.25 9.25005 21.0188 9.25005 19.5H4.5045C3.2297 19.5 2.23791 18.3919 2.37869 17.1249L2.4648 16.3499C2.54029 15.6705 2.93594 15.0682 3.52942 14.729L4.51277 14.1671C4.60798 14.1127 4.66673 14.0115 4.66673 13.9018V10.0278C4.66673 6.28813 7.46594 3.20228 11.0834 2.75118V1.16667C11.0834 0.660406 11.4938 0.25 12.0001 0.25ZM11.0834 19.5C11.0834 20.0063 11.4938 20.4167 12.0001 20.4167C12.5063 20.4167 12.9167 20.0063 12.9167 19.5H11.0834ZM12.0001 4.52778C8.9625 4.52778 6.50006 6.99021 6.50006 10.0278V13.9018C6.50006 14.6694 6.08879 15.3781 5.42236 15.7589L4.43901 16.3208C4.35423 16.3693 4.29771 16.4553 4.28692 16.5524L4.20081 17.3274C4.1807 17.5084 4.32238 17.6667 4.5045 17.6667H19.4956C19.6777 17.6667 19.8194 17.5084 19.7993 17.3274L19.7132 16.5524C19.7024 16.4553 19.6459 16.3693 19.5611 16.3208L18.5778 15.7589C17.9113 15.3781 17.5001 14.6694 17.5001 13.9018V10.0278C17.5001 6.99021 15.0376 4.52778 12.0001 4.52778Z" fill="black"/>
</svg>
