<svg width="67" height="12" viewBox="0 0 67 12" fill="none" xmlns="http://www.w3.org/2000/svg">
<path opacity="0.35" d="M45.0005 0.50293H61.6665C62.8631 0.50293 63.8335 1.4733 63.8335 2.66992V8.66992C63.8333 9.86639 62.863 10.8359 61.6665 10.8359H45.0005C43.804 10.8359 42.8337 9.86639 42.8335 8.66992V2.66992L42.8442 2.44824C42.9551 1.35558 43.8786 0.50293 45.0005 0.50293Z" stroke="black"/>
<path opacity="0.4" d="M65.3335 3.66992V7.66992C66.1382 7.33115 66.6615 6.54306 66.6615 5.66992C66.6615 4.79679 66.1382 4.0087 65.3335 3.66992Z" fill="black"/>
<path d="M44.3335 3.33626C44.3335 2.59988 44.9304 2.00293 45.6668 2.00293H61.0002C61.7365 2.00293 62.3335 2.59988 62.3335 3.33626V8.00293C62.3335 8.73931 61.7365 9.33626 61.0002 9.33626H45.6668C44.9305 9.33626 44.3335 8.73931 44.3335 8.00293V3.33626Z" fill="black"/>
<path fill-rule="evenodd" clip-rule="evenodd" d="M29.6637 2.27733C31.8796 2.27742 34.0108 3.12886 35.6167 4.65566C35.7376 4.77354 35.9309 4.77205 36.05 4.65233L37.206 3.48566C37.2663 3.42494 37.3 3.34269 37.2995 3.25711C37.299 3.17153 37.2644 3.08967 37.2034 3.02966C32.9883 -1.00989 26.3385 -1.00989 22.1234 3.02966C22.0623 3.08963 22.0277 3.17146 22.0271 3.25704C22.0265 3.34262 22.0601 3.42489 22.1204 3.48566L23.2767 4.65233C23.3957 4.77223 23.5892 4.77372 23.71 4.65566C25.3162 3.12876 27.4476 2.27732 29.6637 2.27733ZM29.6637 6.07299C30.8812 6.07292 32.0552 6.52545 32.9577 7.34266C33.0798 7.45864 33.272 7.45613 33.391 7.33699L34.5457 6.17033C34.6065 6.10913 34.6403 6.02612 34.6394 5.93985C34.6385 5.85359 34.6031 5.77127 34.541 5.71133C31.7928 3.15494 27.5369 3.15494 24.7887 5.71133C24.7266 5.77127 24.6912 5.85363 24.6904 5.93992C24.6896 6.02621 24.7234 6.10922 24.7844 6.17033L25.9387 7.33699C26.0577 7.45613 26.25 7.45864 26.372 7.34266C27.2739 6.52599 28.447 6.0735 29.6637 6.07299ZM31.9766 8.62647C31.9783 8.71298 31.9443 8.79638 31.8826 8.85698L29.8852 10.8727C29.8267 10.9319 29.7469 10.9652 29.6636 10.9652C29.5803 10.9652 29.5005 10.9319 29.4419 10.8727L27.4442 8.85698C27.3825 8.79633 27.3486 8.7129 27.3504 8.6264C27.3522 8.53989 27.3897 8.45797 27.4539 8.39998C28.7295 7.3211 30.5977 7.3211 31.8732 8.39998C31.9374 8.45802 31.9748 8.53996 31.9766 8.62647Z" fill="black"/>
<path fill-rule="evenodd" clip-rule="evenodd" d="M16 0.335938H15C14.4477 0.335938 14 0.783653 14 1.33594V10.0026C14 10.5549 14.4477 11.0026 15 11.0026H16C16.5523 11.0026 17 10.5549 17 10.0026V1.33594C17 0.783653 16.5523 0.335938 16 0.335938ZM10.3335 2.66895H11.3335C11.8858 2.66895 12.3335 3.11666 12.3335 3.66895V10.0023C12.3335 10.5546 11.8858 11.0023 11.3335 11.0023H10.3335C9.78121 11.0023 9.3335 10.5546 9.3335 10.0023V3.66895C9.3335 3.11666 9.78121 2.66895 10.3335 2.66895ZM6.6665 5.00293H5.6665C5.11422 5.00293 4.6665 5.45064 4.6665 6.00293V10.0029C4.6665 10.5552 5.11422 11.0029 5.6665 11.0029H6.6665C7.21879 11.0029 7.6665 10.5552 7.6665 10.0029V6.00293C7.6665 5.45064 7.21879 5.00293 6.6665 5.00293ZM2 7.00293H1C0.447715 7.00293 0 7.45064 0 8.00293V10.0029C0 10.5552 0.447715 11.0029 1 11.0029H2C2.55228 11.0029 3 10.5552 3 10.0029V8.00293C3 7.45064 2.55228 7.00293 2 7.00293Z" fill="black"/>
</svg>
