<svg width="18" height="18" viewBox="0 0 18 18" fill="none" xmlns="http://www.w3.org/2000/svg">
<path d="M7.11774 1.5C9.19149 1.5 10.8677 3.18 10.8677 5.25C10.8677 7.32 9.19149 9 7.11774 9C5.04774 9 3.36774 7.32 3.36774 5.25C3.36774 3.18 5.04774 1.5 7.11774 1.5ZM7.11774 3C5.87649 3 4.86774 4.00875 4.86774 5.25C4.86774 6.49125 5.87649 7.5 7.11774 7.5C8.36274 7.5 9.36774 6.49125 9.36774 5.25C9.36774 4.00875 8.36274 3 7.11774 3Z" fill="black"/>
<path d="M7.11774 10.125C8.6598 10.125 9.96709 10.5436 10.9889 11.2858L9.89202 12.3469C9.14981 11.8805 8.22019 11.625 7.11774 11.625C4.08774 11.625 2.36274 13.56 2.25024 16.5C2.24274 16.7062 2.07774 16.875 1.86774 16.875H1.11774C0.911491 16.875 0.742741 16.7062 0.750241 16.5C0.873991 12.7463 3.26274 10.125 7.11774 10.125Z" fill="black"/>
<path d="M17.1862 11.074L16.5524 10.6765C16.3762 10.5678 16.1437 10.6203 16.0349 10.7965L13.0199 15.6228L11.3062 13.6653C11.1674 13.5078 10.9312 13.4928 10.7774 13.6278L10.2112 14.1228C10.0574 14.2578 10.0387 14.4978 10.1774 14.6515L12.5549 17.3703C12.7124 17.5503 12.9412 17.644 13.1774 17.6253C13.4137 17.6065 13.6274 17.4753 13.7549 17.2728L17.3062 11.5915C17.4149 11.4153 17.3624 11.1828 17.1862 11.074Z" fill="black"/>
</svg>
